<svg xmlns="http://www.w3.org/2000/svg" width="15" height="15" viewBox="0 0 15 15" fill="#cbd5e1"><path fill="#90A4AE" fill-rule="nonzero" d="M10.313 0C12.9 0 15 2.1 15 4.688v5.625C15 12.9 12.9 15 10.313 15H4.687A4.69 4.69 0 0 1 0 10.313V4.687C0 2.1 2.1 0 4.688 0Zm0 1.406H4.687a3.285 3.285 0 0 0-3.28 3.282v5.625a3.285 3.285 0 0 0 3.28 3.28h5.626a3.285 3.285 0 0 0 3.28-3.28V4.687a3.285 3.285 0 0 0-3.28-3.28M7.5 3.75a3.75 3.75 0 1 1 0 7.5 3.75 3.75 0 0 1 0-7.5m0 1.406A2.346 2.346 0 0 0 5.156 7.5 2.347 2.347 0 0 0 7.5 9.844 2.347 2.347 0 0 0 9.844 7.5 2.346 2.346 0 0 0 7.5 5.156m4.031-2.187a.5.5 0 1 1 0 1 .5.5 0 0 1 0-1"></path></svg>