<svg xmlns="http://www.w3.org/2000/svg" width="16" height="16" viewBox="0 0 16 16" fill="#cbd5e1"><path fill="#90A4AE" fill-rule="nonzero" d="M11.822 4.673q1.748 0 2.81 1.16t1.063 3.397v5.803h-3.362V9.618q0-1.073-.414-1.68-.414-.609-1.292-.609-.645 0-1.078.353a2.2 2.2 0 0 0-.65.873q-.111.307-.112.828v5.65H5.426q.02-4.075.02-6.61v-.568q0-2.024-.01-2.457l-.01-.49h3.361v1.44q.195-.308.399-.541a4.4 4.4 0 0 1 .577-.531q.363-.287.89-.445a4 4 0 0 1 1.17-.158m-8.256.235v10.126H.194V4.908zM1.901.034q.847 0 1.359.495.51.496.52 1.252.01.746-.515 1.246-.527.501-1.385.501h-.02q-.838 0-1.35-.5Q0 2.526 0 1.78 0 1.025.526.529 1.053.034 1.901.034"></path></svg>