<svg xmlns="http://www.w3.org/2000/svg" width="19" height="15" viewBox="0 0 19 15" fill="#cbd5e1"><path fill="#90A4AE" fill-rule="nonzero" d="M18.462 1.776a7.9 7.9 0 0 1-2.181.597A3.76 3.76 0 0 0 17.946.282a7.6 7.6 0 0 1-2.4.916 3.784 3.784 0 0 0-6.547 2.588c0 .3.025.588.088.863A10.71 10.71 0 0 1 1.285.69a3.8 3.8 0 0 0-.518 1.913 3.79 3.79 0 0 0 1.681 3.145 3.74 3.74 0 0 1-1.71-.466v.042a3.8 3.8 0 0 0 3.033 3.719 3.8 3.8 0 0 1-.993.124c-.242 0-.486-.014-.716-.064a3.82 3.82 0 0 0 3.536 2.636 7.6 7.6 0 0 1-4.692 1.614c-.31 0-.608-.013-.906-.051A10.66 10.66 0 0 0 5.806 15c6.965 0 10.772-5.77 10.772-10.77q0-.25-.013-.49a7.6 7.6 0 0 0 1.897-1.964"></path></svg>