<svg xmlns="http://www.w3.org/2000/svg" width="641" height="240" fill="#cbd5e1" viewBox="0 0 641 240"><g clip-path="url(#logo-flat_svg__a)"><path fill="#1E22AA" d="M229.74 52.03c.61 5.793 1.221 11.118 1.76 16.444 2.911 27.598 5.857 55.196 8.767 82.794.431 4.03.467 4.03-3.054 5.901a151.7 151.7 0 0 1-31.188 12.45c-1.221.36-2.299 1.08-3.054 2.123-13.186 19.178-30.433 33.283-52.171 41.631-21.953 8.456-44.482 9.931-67.226 3.958-33.2-8.707-57.38-28.785-72.615-59.514C4.67 145.115 1.294 131.55.503 117.337c-1.689-30.189 7.258-56.851 27.092-79.52C46.063 16.696 69.454 4.102 97.444.935c36.325-4.138 67.441 7.125 93.203 32.996a99.2 99.2 0 0 1 18.217 25.331c1.114 2.16 2.084 2.447 4.096 1.368 4.815-2.555 9.701-4.966 14.552-7.449.647-.252 1.257-.611 2.228-1.151M81.239 205.493c-.216-1.331-.324-2.411-.54-3.454-3.161-14.861-6.359-29.721-9.52-44.582-5.426-25.511-10.888-51.058-16.313-76.57-1.473-6.944-2.982-13.853-4.456-20.797-.251-1.26-.718-2.447.791-3.49 17.175-12.162 35.895-19.934 57.129-20.834 17.714-.756 34.458 3.346 50.662 10.219.647.288 1.294 1.511 1.294 2.303.108 4.426.144 8.887 0 13.313-.072 1.943.647 2.77 2.443 3.274a70.85 70.85 0 0 0 34.925.684c.646-.18 1.293-.396 1.904-.684-14.624-31.052-54.83-61.24-105.456-52.785-45.524 7.592-81.742 46.417-83.071 95.568-1.402 50.087 33.271 87.148 70.208 97.835m68.304-71.784c.108-.971.215-1.583.215-2.195 0-25.331 0-50.699.036-76.03 0-1.403-.503-2.159-1.796-2.555-3.342-1.043-6.612-2.338-9.989-3.238-26.337-6.98-51.057-3.238-74.196 11.226-1.474.936-1.94 1.871-1.546 3.599q7.17 33.246 14.229 66.494c.755 3.455 1.473 6.945 2.336 10.831 22.492-13.277 46.062-15.148 70.711-8.132m-6.18 9.139c-.288 2.807-.647 5.11-.647 7.413 0 .863.683 2.123 1.437 2.483 9.414 4.677 19.367 7.772 29.858 8.851 18.9 1.943 36.47-2.663 53.249-11.046 1.653-.828 2.156-1.799 1.941-3.635-2.408-22.093-4.707-44.185-7.043-66.278-.395-3.85-.826-7.7-1.293-11.946-9.773 4.03-19.367 7.376-29.535 8.635-10.312 1.296-20.48.432-30.936-2.195v73.296zm45.56 30.441c-.719-.504-.827-.647-.971-.647a40 40 0 0 0-2.084-.072c-18.935.719-36.289-4.498-52.71-13.566-1.293-.719-1.76-1.475-1.616-2.914.395-4.102.467-8.276 1.042-12.342.359-2.483-.575-3.058-2.767-3.274-17.103-1.727-32.733 2.554-47.177 11.622-.683.432-1.257 1.835-1.114 2.627 3.63 17.379 7.366 34.758 11.031 52.137.287 1.404.934 1.908 2.3 2.087 7.653 1.08 15.306 1.548 23.031 1.008 22.96-1.691 43.009-10.219 60.112-25.583 3.808-3.455 7.222-7.305 10.923-11.083M631.119 153.319l-15.881 10.399c-2.3-3.418-4.599-6.621-6.647-10.003-1.15-1.871-2.3-2.303-4.528-1.871-12.432 2.375-24.576 1.511-35.966-4.318-14.049-7.232-21.486-19.25-23.57-34.687-1.545-11.226-.324-22.128 5.389-32.167 6.719-11.802 17.103-18.567 30.182-21.158 14.839-2.914 29.068-1.475 41.895 7.196 10.851 7.305 16.779 17.848 18.432 30.657 1.401 10.903-.072 21.445-4.994 31.377-2.372 4.821-5.749 9.103-9.809 12.629-1.186 1.008-1.33 1.763-.431 3.059 2.012 2.806 3.844 5.721 5.928 8.887m-19.546-29.649c.503-.576 1.006-1.151 1.437-1.763 5.569-9.355 6.324-19.25 2.192-29.181S602.626 78.765 592.314 78.8c-9.881.035-17.893 3.814-22.492 13.169-2.983 6.117-3.198 12.63-2.192 19.214 1.976 12.738 11.39 21.014 24.001 21.23.719 0 1.438-.108 2.623-.216-2.119-3.275-3.952-6.153-5.856-8.96-.827-1.187-.719-1.871.539-2.59 1.688-1.008 3.269-2.123 4.886-3.167 3.126-2.015 6.216-4.03 9.45-6.117zM323.231 94.273c.539-.576 1.185-1.332 1.832-2.051 9.055-10.58 32.553-11.083 41.069 2.842 3.557 5.829 5.03 12.27 5.102 18.963.179 11.766.072 23.568.072 35.334 0 1.187-.036 2.159-1.653 2.123-6-.036-12.001 0-18.001-.036a8 8 0 0 1-1.33-.324v-2.806c0-10.219.144-20.438-.072-30.657-.107-2.771-.718-5.541-1.868-8.06-1.725-3.814-5.03-5.613-9.306-5.397-4.276.215-7.581 2.123-9.09 6.188a22.7 22.7 0 0 0-1.473 7.737c-.18 10.219-.144 20.437-.036 30.656.035 2.195-.647 2.807-2.767 2.735-5.282-.144-10.6-.108-15.881 0-1.869.036-2.372-.612-2.372-2.411.072-10.219.18-20.438-.036-30.657a24.4 24.4 0 0 0-1.796-8.599c-1.689-4.03-5.174-5.865-9.594-5.649-4.311.215-7.581 2.23-8.91 6.332a31.6 31.6 0 0 0-1.474 9.14c-.179 9.751-.107 19.502-.035 29.253 0 1.871-.432 2.627-2.444 2.555-5.389-.144-10.743-.108-16.133 0-1.976.036-2.479-.684-2.479-2.555q.108-30.063 0-60.126c0-2.195.683-2.77 2.803-2.734 5.21.144 10.384.036 15.773.036.108 1.763.18 3.274.288 4.857 14.192-9.391 27.379-9.427 39.811 3.31M537.161 151.232h-21.846v-2.95c0-10.615-.036-21.23.036-31.808 0-2.123-.611-2.807-2.767-2.771q-16.6.162-33.199 0c-2.048 0-2.695.576-2.659 2.663.072 10.758-.036 21.517.072 32.275.036 2.303-.719 2.915-2.947 2.843-5.605-.144-11.21-.108-16.815 0-1.797.036-2.407-.504-2.407-2.375q.107-43.394 0-86.788c0-1.944.574-2.555 2.515-2.52 5.605.109 11.21.145 16.815 0 2.372-.071 2.839.828 2.803 2.987-.108 10.075.036 20.114-.072 30.19-.036 2.338.647 3.058 3.018 3.058 10.923-.108 21.81-.108 32.733 0 2.227 0 2.946-.648 2.91-2.915-.108-10.219 0-20.438-.072-30.656-.036-2.088.611-2.7 2.659-2.627 5.749.108 11.534.072 17.283.036 1.365 0 2.12.252 2.12 1.907-.036 29.47-.036 58.938-.036 88.444-.036.287-.072.647-.144 1.007M380.073 160.156c6.216 0 12.288-.036 18.324.072.539 0 1.258.791 1.545 1.403 2.767 5.325 7.654 7.484 14.444 6.225 5.498-1.008 8.372-4.282 8.875-10.435.252-3.454.036-6.945.036-10.795-1.006.576-1.76 1.08-2.515 1.476-9.45 5.109-19.115 5.217-28.708.719-6.827-3.202-10.42-9.247-12.109-16.372a57 57 0 0 1-1.509-11.55c-.216-10.758 0-21.517-.108-32.276-.036-2.087.611-2.662 2.623-2.626 6 .144 11.965.036 18.361.036v2.914c0 9.967-.036 19.97.035 29.937q0 2.591.647 5.074c1.294 4.929 4.707 7.736 9.594 8.204 5.102.467 9.449-1.692 11.354-6.405a25.3 25.3 0 0 0 1.832-8.6c.216-9.571.108-19.178.036-28.75 0-1.799.431-2.446 2.336-2.41 6.072.108 12.144.036 18.504.036.072.971.143 1.799.143 2.626 0 21.05.108 42.099-.071 63.149a46.7 46.7 0 0 1-1.797 12.414c-2.587 9.031-8.551 15.112-17.642 17.739-9.917 2.878-19.869 2.734-29.571-.972-8.228-3.094-14.695-12.27-14.659-20.833"></path><path fill="#1D1D1B" d="M302.894 228.666v3.778h-5.533v-33.535h5.533v13.313c1.797-2.519 4.312-4.534 8.264-4.534 5.677 0 11.246 4.498 11.246 12.594v.108c0 8.024-5.497 12.594-11.246 12.594-4.06-.072-6.575-2.087-8.264-4.318m13.833-8.312v-.108c0-4.678-3.162-7.772-6.934-7.772s-7.079 3.13-7.079 7.772v.108c0 4.642 3.306 7.772 7.079 7.772 3.808-.036 6.934-3.022 6.934-7.772M343.747 208.192h5.785l-9.63 24.935c-1.94 4.966-4.096 6.801-7.976 6.801-2.3 0-4.024-.54-5.749-1.475l1.868-4.138c1.006.54 2.12.935 3.27.935 1.545 0 2.515-.683 3.449-2.77l-10.096-24.288h5.964l6.827 17.991zM380.037 200.06h5.246l14.12 32.384h-5.964l-3.27-7.772h-15.162l-3.306 7.772h-5.785zm8.084 19.61-5.533-12.845-5.497 12.845zM404.901 200.276h5.246l17.21 22.237v-22.237h5.534v32.132h-4.707l-17.714-22.885v22.885h-5.533zM452.509 200.06h5.245l14.121 32.384h-5.964l-3.27-7.772h-15.163l-3.305 7.772h-5.785zm8.048 19.61-5.533-12.845-5.498 12.845zM477.373 200.276h14.3c4.024 0 7.186 1.187 9.27 3.202 1.689 1.727 2.659 4.138 2.659 6.945v.108c0 5.289-3.162 8.456-7.617 9.751l8.659 12.162h-6.683l-7.905-11.191h-7.078v11.191h-5.641zm13.869 15.94c4.024 0 6.611-2.123 6.611-5.361v-.108c0-3.455-2.479-5.326-6.647-5.326h-8.192v10.795zM509.099 216.432v-.108c0-9.032 6.971-16.624 16.816-16.624s16.743 7.484 16.743 16.516v.108c0 9.031-6.97 16.624-16.815 16.624-9.881.036-16.744-7.449-16.744-16.516m27.631 0v-.108c0-6.261-4.528-11.442-10.923-11.442-6.36 0-10.815 5.109-10.815 11.334v.108c0 6.261 4.527 11.406 10.923 11.406 6.359 0 10.815-5.037 10.815-11.298M548.048 216.432v-.108c0-9.14 6.827-16.624 16.564-16.624 5.928 0 9.485 2.051 12.575 5.002l-3.629 4.174c-2.551-2.375-5.317-3.994-8.982-3.994-6.108 0-10.6 5.037-10.6 11.334v.108c0 6.297 4.456 11.406 10.6 11.406 3.952 0 6.467-1.547 9.234-4.138l3.629 3.67c-3.342 3.491-7.006 5.686-13.007 5.686-9.414.036-16.384-7.269-16.384-16.516M583.332 200.276h5.641v16.156l15.27-16.156h6.971l-13.402 13.817 13.976 18.315h-6.862l-10.959-14.465-4.994 5.145v9.32h-5.641z"></path><path fill="#A74D96" d="M290.857 217.655H264.52v3.491h26.337zM640.964 217.655h-26.337v3.491h26.337z"></path></g><defs><clipPath id="logo-flat_svg__a"><path fill="#fff" d="M0 0h641v240H0z"></path></clipPath></defs></svg>